<svg width="256" height="256" viewBox="0 0 256 256" fill="none" xmlns="http://www.w3.org/2000/svg" role="img" aria-labelledby="title description">
  <title id="title">MCPlexer</title>
  <desc id="description">A red and blue offset 3D-glasses treatment of the Model Context Protocol logo.</desc>
  <rect width="256" height="256" rx="56" fill="#080A0F" />
  <g transform="translate(35 34)" stroke-linecap="round" stroke-linejoin="round">
    <g opacity="0.26" stroke="#FFFFFF" stroke-width="18" transform="translate(4 8)">
      <path d="M18 84.8528L85.8822 16.9706C95.2548 7.59798 110.451 7.59798 119.823 16.9706C129.196 26.3431 129.196 41.5391 119.823 50.9117L68.5581 102.177" />
      <path d="M69.2652 101.47L119.823 50.9117C129.196 41.5391 144.392 41.5391 153.765 50.9117L154.118 51.2652C163.491 60.6378 163.491 75.8338 154.118 85.2063L92.7248 146.6C89.6006 149.724 89.6006 154.789 92.7248 157.913L105.331 170.52" />
      <path d="M102.853 33.9411L52.6482 84.1457C43.2756 93.5183 43.2756 108.714 52.6482 118.087C62.0208 127.459 77.2167 127.459 86.5893 118.087L136.794 67.8822" />
    </g>
    <g stroke="#FF3B52" stroke-width="14" transform="translate(-5 2)">
      <path d="M18 84.8528L85.8822 16.9706C95.2548 7.59798 110.451 7.59798 119.823 16.9706C129.196 26.3431 129.196 41.5391 119.823 50.9117L68.5581 102.177" />
      <path d="M69.2652 101.47L119.823 50.9117C129.196 41.5391 144.392 41.5391 153.765 50.9117L154.118 51.2652C163.491 60.6378 163.491 75.8338 154.118 85.2063L92.7248 146.6C89.6006 149.724 89.6006 154.789 92.7248 157.913L105.331 170.52" />
      <path d="M102.853 33.9411L52.6482 84.1457C43.2756 93.5183 43.2756 108.714 52.6482 118.087C62.0208 127.459 77.2167 127.459 86.5893 118.087L136.794 67.8822" />
    </g>
    <g stroke="#19B5FF" stroke-width="14" transform="translate(13 2)">
      <path d="M18 84.8528L85.8822 16.9706C95.2548 7.59798 110.451 7.59798 119.823 16.9706C129.196 26.3431 129.196 41.5391 119.823 50.9117L68.5581 102.177" />
      <path d="M69.2652 101.47L119.823 50.9117C129.196 41.5391 144.392 41.5391 153.765 50.9117L154.118 51.2652C163.491 60.6378 163.491 75.8338 154.118 85.2063L92.7248 146.6C89.6006 149.724 89.6006 154.789 92.7248 157.913L105.331 170.52" />
      <path d="M102.853 33.9411L52.6482 84.1457C43.2756 93.5183 43.2756 108.714 52.6482 118.087C62.0208 127.459 77.2167 127.459 86.5893 118.087L136.794 67.8822" />
    </g>
    <g opacity="0.7" stroke="#F8FAFC" stroke-width="5" transform="translate(4 3)">
      <path d="M18 84.8528L85.8822 16.9706C95.2548 7.59798 110.451 7.59798 119.823 16.9706C129.196 26.3431 129.196 41.5391 119.823 50.9117L68.5581 102.177" />
      <path d="M69.2652 101.47L119.823 50.9117C129.196 41.5391 144.392 41.5391 153.765 50.9117L154.118 51.2652C163.491 60.6378 163.491 75.8338 154.118 85.2063L92.7248 146.6C89.6006 149.724 89.6006 154.789 92.7248 157.913L105.331 170.52" />
      <path d="M102.853 33.9411L52.6482 84.1457C43.2756 93.5183 43.2756 108.714 52.6482 118.087C62.0208 127.459 77.2167 127.459 86.5893 118.087L136.794 67.8822" />
    </g>
  </g>
</svg>
